<svg width="57" height="57" viewBox="0 0 57 57" fill="none" xmlns="http://www.w3.org/2000/svg">
  <path fill-rule="evenodd" clip-rule="evenodd"
    d="M41.4347 28.8367C41.4347 27.8816 41.3494 26.9624 41.1892 26.0806H28.5V31.2919H35.7518C35.439 32.9761 34.4898 34.4043 33.0631 35.3595V38.7399H37.4166C39.9646 36.394 41.4347 32.9402 41.4347 28.8367Z"
    fill="#3D82F0" />
  <path fill-rule="evenodd" clip-rule="evenodd"
    d="M28.5003 42.004C32.1382 42.004 35.1878 40.7974 37.4169 38.7404L33.0634 35.3585C31.8568 36.167 30.3133 36.6445 28.5003 36.6445C24.9912 36.6445 22.021 34.2747 20.961 31.0903H16.4593V34.5815C18.6765 38.9845 23.2336 42.004 28.5003 42.004Z"
    fill="#31A752" />
  <path fill-rule="evenodd" clip-rule="evenodd"
    d="M20.9607 31.0903C20.6912 30.2818 20.5386 29.4181 20.5386 28.5302C20.5386 27.6425 20.6912 26.7787 20.9607 25.9702V22.4791H16.459C15.5473 24.298 15.0263 26.3565 15.0263 28.5302C15.0263 30.704 15.5473 32.7625 16.459 34.5815L20.9607 31.0903Z"
    fill="#F9BA00" />
  <path fill-rule="evenodd" clip-rule="evenodd"
    d="M28.5003 20.4156C30.478 20.4156 32.2549 21.0953 33.6502 22.4307L37.5157 18.5668C35.1818 16.3915 32.1322 15.0562 28.5003 15.0562C23.2336 15.0562 18.6765 18.0757 16.4593 22.4801L20.961 25.9698C22.021 22.7855 24.9912 20.4156 28.5003 20.4156Z"
    fill="#E64234" />
</svg>