<svg width="114" height="19" viewBox="0 0 114 19" fill="none" xmlns="http://www.w3.org/2000/svg">
  <g clip-path="url(#clip0_10_695)">
    <path
      d="M12.4641 5.64818C11.7926 4.91789 10.9766 4.33515 10.0679 3.93694C9.15925 3.53872 8.17774 3.33373 7.18565 3.33497C3.21886 3.33497 0.00415039 6.54968 0.00415039 10.5165C0.00415039 14.4832 3.21886 17.698 7.18565 17.698C9.27359 17.698 11.1524 16.8072 12.4641 15.3847C13.6898 14.0594 14.3695 12.3199 14.3671 10.5147C14.3671 8.63762 13.6465 6.92841 12.4641 5.64818Z"
      fill="#24E0A6" />
    <path
      d="M23.0235 5.64818C22.352 4.91789 21.536 4.33515 20.6274 3.93694C19.7187 3.53872 18.7372 3.33373 17.7451 3.33497C13.7783 3.33497 10.5636 6.54968 10.5636 10.5165C10.5636 14.4832 13.7783 17.698 17.7451 17.698C19.833 17.698 21.7119 16.8072 23.0235 15.3847C24.2492 14.0594 24.929 12.3199 24.9266 10.5147C24.9266 8.63942 24.2041 6.92841 23.0235 5.64818Z"
      fill="#438BFF" />
    <path
      d="M33.5807 5.64818C32.9092 4.91789 32.0932 4.33515 31.1846 3.93694C30.2759 3.53872 29.2944 3.33373 28.3023 3.33497C24.3355 3.33497 21.1208 6.54968 21.1208 10.5165C21.1208 14.4832 24.3355 17.698 28.3023 17.698C30.3902 17.698 32.2691 16.8072 33.5807 15.3847C34.8064 14.0594 35.4862 12.3199 35.4838 10.5147C35.4838 8.63762 34.7613 6.92841 33.5807 5.64818Z"
      fill="#2C5BF2" />
    <path
      d="M12.4641 5.64818C11.7926 4.91789 10.9766 4.33515 10.0679 3.93694C9.15925 3.53872 8.17774 3.33373 7.18565 3.33497C3.21886 3.33497 0.00415039 6.54968 0.00415039 10.5165C0.00415039 14.4832 3.21886 17.698 7.18565 17.698C9.27359 17.698 11.1524 16.8072 12.4641 15.3847C11.2383 14.0594 10.5586 12.3199 10.561 10.5147C10.561 8.63762 11.2835 6.92841 12.4641 5.64818Z"
      fill="#24E0BC" />
    <path
      d="M23.0218 5.64817C21.7101 4.22569 19.8308 3.33496 17.7433 3.33496C15.6558 3.33496 13.7765 4.22569 12.4649 5.64817C13.6906 6.9735 14.3704 8.713 14.368 10.5183C14.368 12.3971 13.6455 14.1081 12.4649 15.3883C13.7765 16.8108 15.6558 17.7015 17.7433 17.7015C19.8308 17.7015 21.7101 16.8108 23.0218 15.3883C21.8411 14.1081 21.1187 12.3989 21.1187 10.5183C21.1187 8.63762 21.8411 6.9284 23.0218 5.64817Z"
      fill="#438BFF" />
    <path
      d="M12.4644 5.64844C11.2387 6.97377 10.5589 8.71327 10.5613 10.5185C10.5613 12.3974 11.2838 14.1084 12.4644 15.3886C13.645 14.1084 14.3675 12.3991 14.3675 10.5185C14.3675 8.63788 13.6468 6.92867 12.4644 5.64844Z"
      fill="#3A68F9" />
    <path
      d="M28.3024 3.33496C26.2144 3.33496 24.3356 4.22569 23.0239 5.64817C24.2497 6.9735 24.9294 8.713 24.927 10.5183C24.927 12.3971 24.2045 14.1081 23.0239 15.3883C23.6954 16.1186 24.5114 16.7014 25.4201 17.0996C26.3287 17.4978 27.3103 17.7028 28.3024 17.7015C32.2691 17.7015 35.4838 14.4868 35.4838 10.52C35.4838 6.54967 32.2673 3.33496 28.3024 3.33496Z"
      fill="#2C5BF2" />
    <path
      d="M23.0221 5.64844C21.7963 6.97377 21.1166 8.71327 21.119 10.5185C21.119 12.3974 21.8415 14.1084 23.0221 15.3886C24.2478 14.0633 24.9275 12.3238 24.9251 10.5185C24.9269 8.63788 24.2045 6.92867 23.0221 5.64844Z"
      fill="#0049DB" />
  </g>
  <g clip-path="url(#clip1_10_695)">
    <path
      d="M87.4982 1.89209L84.6549 3.11084V5.54834H82.7255V8.18897H84.6549V13.3687C84.6549 15.5015 85.975 16.9233 88.0059 16.9233C88.8183 16.9233 89.3261 16.7202 89.6307 16.6187V13.978C89.5292 13.978 89.123 14.0796 88.7168 14.0796C87.9044 14.0796 87.4982 13.7749 87.4982 12.7593V8.29053H89.6307V5.6499H87.4982V1.89209ZM56.4247 5.6499L54.3938 12.7593L52.0582 5.6499H49.2149L46.8793 12.7593L44.9499 5.6499H41.9034L45.3561 16.7202H48.4025L50.6365 9.30615L52.9721 16.7202H56.0185L59.4711 5.6499H56.4247ZM110.143 1.89209V6.25928C109.432 5.75146 108.62 5.44678 107.706 5.34521H107.503H106.691C104.152 5.54834 102.527 7.47803 102.019 9.91553C101.918 10.3218 101.918 10.6265 101.918 11.0327V11.9468C102.223 14.7905 104.152 17.0249 107.097 17.0249C108.315 17.0249 109.331 16.7202 110.143 16.1108V16.8218H112.885V0.774902L110.143 1.89209ZM107.503 14.2827C105.98 14.2827 104.66 13.064 104.66 11.1343C104.66 9.10303 105.98 7.98584 107.503 7.98584C109.026 7.98584 110.143 9.10303 110.143 11.0327C110.143 13.1655 109.026 14.2827 107.503 14.2827ZM100.902 9.91553C100.496 7.2749 98.5669 5.34521 95.8251 5.34521C93.0833 5.34521 91.1539 7.2749 90.7477 9.91553C90.6462 10.3218 90.6462 10.728 90.6462 11.2358V12.0483C90.9508 14.8921 92.8802 17.1265 95.8251 17.1265C98.1607 17.1265 99.887 15.7046 100.598 13.6733L98.0591 13.064C97.6529 13.978 96.8406 14.689 95.8251 14.689C94.4034 14.689 93.4895 13.5718 93.2864 12.0483H101.004V11.2358C101.004 10.728 101.004 10.3218 100.902 9.91553ZM93.388 9.91553C93.7941 8.79834 94.6065 8.0874 95.8251 8.0874C97.0437 8.0874 97.856 8.8999 98.2622 9.91553H93.388ZM67.5949 6.36084C66.8841 5.85303 65.9702 5.44678 64.9547 5.44678H64.6501H64.3454C61.7052 5.6499 59.9789 7.47803 59.5727 10.0171C59.4711 10.4233 59.4711 10.728 59.4711 11.1343V12.0483C59.7758 14.8921 61.7052 17.1265 64.6501 17.1265C65.8686 17.1265 66.8841 16.8218 67.6965 16.2124V16.9233H70.5398V5.6499H67.6965V6.36084H67.5949ZM64.9547 14.2827C63.4315 14.2827 62.1114 13.064 62.1114 11.1343C62.1114 9.10303 63.4315 7.98584 64.9547 7.98584C66.4779 7.98584 67.5949 9.10303 67.5949 11.0327C67.5949 13.1655 66.4779 14.2827 64.9547 14.2827ZM78.0543 5.34521C76.9373 5.34521 75.7187 5.85303 75.0079 6.97021V5.6499H72.1646V16.7202H75.0079V10.3218C75.0079 9.00146 75.7187 7.98584 77.0388 7.98584C78.4605 7.98584 78.9682 9.00146 78.9682 10.2202V16.7202H81.8116V9.7124C81.9131 7.2749 80.6945 5.34521 78.0543 5.34521Z"
      fill="#333333" />
  </g>
  <defs>
    <clipPath id="clip0_10_695">
      <rect width="35.47" height="14.36" fill="white" transform="translate(0 3.33496)" />
    </clipPath>
    <clipPath id="clip1_10_695">
      <rect width="71.13" height="16.25" fill="white" transform="translate(41.88 0.774902)" />
    </clipPath>
  </defs>
</svg>