<svg width="56" height="57" viewBox="0 0 56 57" fill="none" xmlns="http://www.w3.org/2000/svg">
  <g clip-path="url(#clip0_1_24)">
    <path
      d="M0.491226 28.53C0.491226 13.3373 12.8073 1.02124 28 1.02124C43.1927 1.02124 55.5088 13.3373 55.5088 28.53C55.5088 43.7227 43.1927 56.0388 28 56.0388C12.8073 56.0388 0.491226 43.7227 0.491226 28.53Z"
      fill="black" />
    <path
      d="M28.3126 20.0407C29.4804 20.0407 30.9442 19.2269 31.8159 18.142C32.6054 17.1587 33.1811 15.7855 33.1811 14.4124C33.1811 14.2259 33.1646 14.0394 33.1317 13.8868C31.8324 13.9376 30.2699 14.7853 29.3323 15.9211C28.5922 16.7858 27.9179 18.142 27.9179 19.532C27.9179 19.7355 27.9508 19.939 27.9672 20.0068C28.0494 20.0238 28.1811 20.0407 28.3126 20.0407ZM24.2007 40.5535C25.7962 40.5535 26.5034 39.4515 28.4935 39.4515C30.5166 39.4515 30.9606 40.5196 32.7369 40.5196C34.4804 40.5196 35.6481 38.8582 36.7501 37.2308C37.9836 35.366 38.4935 33.5351 38.5264 33.4503C38.4113 33.4164 35.0725 32.0093 35.0725 28.0594C35.0725 24.6348 37.704 23.0922 37.8521 22.9735C36.1087 20.3967 33.4606 20.3289 32.7369 20.3289C30.7798 20.3289 29.1844 21.5494 28.1811 21.5494C27.0956 21.5494 25.6646 20.3967 23.9706 20.3967C20.7468 20.3967 17.4738 23.1431 17.4738 28.3305C17.4738 31.5516 18.6909 34.9591 20.1876 37.1629C21.4705 39.0277 22.5889 40.5535 24.2007 40.5535Z"
      fill="white" />
  </g>
  <defs>
    <clipPath id="clip0_1_24">
      <rect width="56" height="56" fill="white" transform="translate(0 0.530029)" />
    </clipPath>
  </defs>
</svg>