<svg width="56" height="57" viewBox="0 0 56 57" fill="none" xmlns="http://www.w3.org/2000/svg">
  <g clip-path="url(#clip0_1_40)">
    <path
      d="M0.491226 28.53C0.491226 13.3373 12.8073 1.02124 28 1.02124C43.1927 1.02124 55.5088 13.3373 55.5088 28.53C55.5088 43.7227 43.1927 56.0388 28 56.0388C12.8073 56.0388 0.491226 43.7227 0.491226 28.53Z"
      fill="#FEE500" />
    <path fill-rule="evenodd" clip-rule="evenodd"
      d="M28 16.9432C21.1823 16.9432 15.6492 21.2414 15.6492 26.5275C15.6492 29.8252 17.7858 32.7029 21.0465 34.4568L19.6756 39.4836C19.6496 39.5835 19.655 39.6891 19.6908 39.7859C19.7265 39.8828 19.7912 39.9664 19.8758 40.0256C19.9605 40.0847 20.0613 40.1165 20.1645 40.1168C20.2678 40.117 20.3687 40.0858 20.4537 40.027L26.4562 36.0377C26.9625 36.0377 27.4813 36.1241 28 36.1241C34.8177 36.1241 40.3509 31.8261 40.3509 26.5275C40.3509 21.229 34.8177 16.9432 28 16.9432Z"
      fill="#181600" />
  </g>
  <defs>
    <clipPath id="clip0_1_40">
      <rect width="56" height="56" fill="white" transform="translate(0 0.530029)" />
    </clipPath>
  </defs>
</svg>