<svg width="93" height="29" viewBox="0 0 93 29" fill="none" xmlns="http://www.w3.org/2000/svg">
<path d="M4.77051 23.45H8.68066L11.626 14.2078L14.5967 23.45H18.5068L22.874 9.73908H18.9639L16.4248 18.5496L13.4541 9.73908H9.79785L6.82715 18.5496L4.28809 9.73908H0.37793L4.77051 23.45ZM22.8486 16.5691C22.8486 20.1365 25.1084 23.7801 29.5264 23.7801C31.0371 23.7928 32.332 23.3611 33.3857 22.6121V23.45H36.9658V9.73908H33.3857V10.577C32.332 9.82795 31.0371 9.39631 29.5264 9.409C25.1084 9.409 22.8486 13.0018 22.8486 16.5691ZM26.3271 16.5691C26.3145 14.1189 27.9902 12.7225 29.9326 12.7098C31.8496 12.7225 33.3604 14.0809 33.3604 16.5438C33.3604 19.0193 31.8496 20.4666 29.9326 20.4539C27.9268 20.4666 26.3145 19.0193 26.3271 16.5691ZM39.1494 23.45H42.8564V15.5535C42.8564 13.9666 43.7832 12.7225 45.4209 12.7098C47.1855 12.7225 47.9346 13.9158 47.9346 15.452V23.45H51.6416V14.7918C51.6416 11.7957 50.0928 9.37092 46.6904 9.35822C45.2432 9.37092 43.6309 9.99299 42.7803 11.3387V9.73908H39.1494V23.45ZM52.708 13.0145H55.1963V19.3875C55.1963 22.0535 56.8594 23.7801 59.5381 23.7801C60.6172 23.7801 61.29 23.5896 61.6201 23.45V20.2254C61.4297 20.3016 60.9219 20.3523 60.4775 20.3523C59.4238 20.3523 58.8779 19.9588 58.8779 18.7527V13.0145H61.6201V9.73908H58.8779V5.14338L55.2471 6.66682V9.73908H52.708V13.0145ZM62.8389 16.5945C62.8389 20.5428 65.3652 23.7928 69.5166 23.7801C72.5381 23.7928 74.7217 22.0535 75.6865 19.5398L72.3857 18.8543C71.8398 20.035 70.8369 20.8094 69.5166 20.8094C67.752 20.8094 66.5586 19.4256 66.2666 17.5594H76.1436C76.1816 17.242 76.1943 16.9246 76.1943 16.5945C76.1943 12.4051 73.4395 9.409 69.5166 9.409C65.4414 9.409 62.8389 12.6336 62.8389 16.5945ZM66.4443 14.9949C66.9014 13.6492 67.9932 12.7098 69.5166 12.7098C71.04 12.7098 72.1445 13.6492 72.6143 14.9949H66.4443ZM77.4131 16.5691C77.4131 20.5555 79.9395 23.7928 84.0908 23.7801C85.6016 23.7928 86.8965 23.3484 87.9502 22.6121V23.45L91.5049 23.4754V3.7215L87.874 5.14338V10.5262C86.7568 9.77717 85.4365 9.409 84.0908 9.409C80.0029 9.409 77.4131 12.5701 77.4131 16.5691ZM80.8662 16.5691C80.8662 14.1062 82.542 12.7225 84.4717 12.7098C86.4141 12.7225 87.9121 14.0809 87.9248 16.5184C87.9121 19.0193 86.4141 20.4666 84.4717 20.4539C82.4912 20.4666 80.8662 19.0193 80.8662 16.5691Z" fill="black"/>
</svg>
