<svg width="19" height="18" viewBox="0 0 19 18" fill="none" xmlns="http://www.w3.org/2000/svg">
  <path
    d="M16.527 17.273C16.5788 17.3272 16.6409 17.3705 16.7097 17.4004C16.7785 17.4302 16.8526 17.446 16.9276 17.4469C17.0026 17.4477 17.077 17.4336 17.1465 17.4053C17.2159 17.377 17.279 17.3351 17.3321 17.282C17.3851 17.229 17.427 17.1659 17.4553 17.0964C17.4836 17.027 17.4978 16.9526 17.4969 16.8776C17.4961 16.8026 17.4803 16.7285 17.4504 16.6597C17.4205 16.5909 17.3772 16.5288 17.323 16.477L12.448 11.602L12.258 11.437C12.1505 11.3446 12.0121 11.2962 11.8705 11.3014C11.7289 11.3066 11.5944 11.365 11.494 11.465C10.6159 12.3365 9.44917 12.8564 8.21399 12.9265C6.97882 12.9965 5.76074 12.6119 4.78976 11.8453C3.81877 11.0786 3.16209 9.98301 2.94372 8.76528C2.72535 7.54755 2.96039 6.292 3.60447 5.23573C4.24856 4.17945 5.2571 3.39556 6.43965 3.03207C7.6222 2.66857 8.89692 2.75064 10.0231 3.26278C11.1493 3.77491 12.049 4.68166 12.5523 5.81181C13.0556 6.94196 13.1277 8.21728 12.755 9.39696C12.7328 9.46741 12.7247 9.54154 12.7311 9.61513C12.7376 9.68871 12.7585 9.7603 12.7926 9.82582C12.8267 9.89133 12.8734 9.94948 12.93 9.99694C12.9866 10.0444 13.052 10.0803 13.1225 10.1025C13.1929 10.1246 13.2671 10.1327 13.3407 10.1263C13.4142 10.1198 13.4858 10.0989 13.5513 10.0648C13.6169 10.0307 13.675 9.984 13.7225 9.9274C13.7699 9.8708 13.8058 9.80541 13.828 9.73495C14.2761 8.31537 14.1974 6.78182 13.6064 5.41555C13.0153 4.04927 11.9516 2.94185 10.6102 2.29635C9.26881 1.65085 7.73967 1.51055 6.30321 1.90117C4.86675 2.29179 3.61924 3.18716 2.78946 4.42307C1.95969 5.65898 1.60325 7.1526 1.78553 8.63003C1.96781 10.1075 2.67657 11.4697 3.78186 12.4668C4.88714 13.464 6.31485 14.0293 7.80318 14.0591C9.29151 14.0889 10.7407 13.5811 11.885 12.629L16.527 17.273Z"
    stroke="#333333" stroke-width="0.3" />
</svg>