<svg width="36" height="15" viewBox="0 0 36 15" fill="none" xmlns="http://www.w3.org/2000/svg">
  <g clip-path="url(#clip0_10_696)">
    <path
      d="M12.4641 2.64818C11.7926 1.91789 10.9766 1.33515 10.0679 0.936937C9.15925 0.538725 8.17774 0.333732 7.18565 0.334966C3.21886 0.334966 0.00415039 3.54968 0.00415039 7.51646C0.00415039 11.4832 3.21886 14.698 7.18565 14.698C9.27359 14.698 11.1524 13.8072 12.4641 12.3847C13.6898 11.0594 14.3695 9.31991 14.3671 7.51467C14.3671 5.63762 13.6465 3.92841 12.4641 2.64818Z"
      fill="#24E0A6" />
    <path
      d="M23.0235 2.64818C22.352 1.91789 21.536 1.33515 20.6274 0.936937C19.7187 0.538725 18.7372 0.333732 17.7451 0.334966C13.7783 0.334966 10.5636 3.54968 10.5636 7.51646C10.5636 11.4832 13.7783 14.698 17.7451 14.698C19.833 14.698 21.7119 13.8072 23.0235 12.3847C24.2492 11.0594 24.929 9.31991 24.9266 7.51467C24.9266 5.63942 24.2041 3.92841 23.0235 2.64818Z"
      fill="#438BFF" />
    <path
      d="M33.5807 2.64818C32.9092 1.91789 32.0932 1.33515 31.1846 0.936937C30.2759 0.538725 29.2944 0.333732 28.3023 0.334966C24.3355 0.334966 21.1208 3.54968 21.1208 7.51646C21.1208 11.4832 24.3355 14.698 28.3023 14.698C30.3902 14.698 32.2691 13.8072 33.5807 12.3847C34.8064 11.0594 35.4862 9.31991 35.4838 7.51467C35.4838 5.63762 34.7613 3.92841 33.5807 2.64818Z"
      fill="#2C5BF2" />
    <path
      d="M12.4641 2.64818C11.7926 1.91789 10.9766 1.33515 10.0679 0.936937C9.15925 0.538725 8.17774 0.333732 7.18565 0.334966C3.21886 0.334966 0.00415039 3.54968 0.00415039 7.51646C0.00415039 11.4832 3.21886 14.698 7.18565 14.698C9.27359 14.698 11.1524 13.8072 12.4641 12.3847C11.2383 11.0594 10.5586 9.31991 10.561 7.51467C10.561 5.63762 11.2835 3.92841 12.4641 2.64818Z"
      fill="#24E0BC" />
    <path
      d="M23.0218 2.64817C21.7101 1.22569 19.8308 0.334961 17.7433 0.334961C15.6558 0.334961 13.7765 1.22569 12.4649 2.64817C13.6906 3.9735 14.3704 5.713 14.368 7.51825C14.368 9.39709 13.6455 11.1081 12.4649 12.3883C13.7765 13.8108 15.6558 14.7015 17.7433 14.7015C19.8308 14.7015 21.7101 13.8108 23.0218 12.3883C21.8411 11.1081 21.1187 9.39888 21.1187 7.51825C21.1187 5.63762 21.8411 3.9284 23.0218 2.64817Z"
      fill="#438BFF" />
    <path
      d="M12.4644 2.64844C11.2387 3.97377 10.5589 5.71327 10.5613 7.51852C10.5613 9.39735 11.2838 11.1084 12.4644 12.3886C13.645 11.1084 14.3675 9.39915 14.3675 7.51852C14.3675 5.63788 13.6468 3.92867 12.4644 2.64844Z"
      fill="#3A68F9" />
    <path
      d="M28.3024 0.334961C26.2144 0.334961 24.3356 1.22569 23.0239 2.64817C24.2497 3.9735 24.9294 5.713 24.927 7.51825C24.927 9.39709 24.2045 11.1081 23.0239 12.3883C23.6954 13.1186 24.5114 13.7014 25.4201 14.0996C26.3287 14.4978 27.3103 14.7028 28.3024 14.7015C32.2691 14.7015 35.4838 11.4868 35.4838 7.52005C35.4838 3.54967 32.2673 0.334961 28.3024 0.334961Z"
      fill="#2C5BF2" />
    <path
      d="M23.0221 2.64844C21.7963 3.97377 21.1166 5.71327 21.119 7.51852C21.119 9.39735 21.8415 11.1084 23.0221 12.3886C24.2478 11.0633 24.9275 9.32376 24.9251 7.51852C24.9269 5.63788 24.2045 3.92867 23.0221 2.64844Z"
      fill="#0049DB" />
  </g>
  <defs>
    <clipPath id="clip0_10_696">
      <rect width="35.47" height="14.36" fill="white" transform="translate(0 0.334961)" />
    </clipPath>
  </defs>
</svg>